<svg xmlns="http://www.w3.org/2000/svg" version="1.1" width="215" height="240">
    <defs>
        <filter id="blur" x="-20" y="-20" width="30" height="30">
            <feGaussianBlur in="SourceGraphic" stdDeviation="10"/>
        </filter>
    </defs>
    <g transform="translate(20, 20)">
        <path id="shadow" filter="url(#blur)" opacity=".75" d="M10,183.257c-8.284,0-15-6.716-15-15v-148c0-8.284,6.716-15,15-15h148c8.284,0,15,6.716,15,15v148c0,8.284-6.716,15-15,15h-40.308l-33.692,24.18l-33.692-24.18H10z"/>
        <path fill="#fff" d="M10,173c-8.284,0-15-6.716-15-15v-148c0-8.284,6.716-15,15-15h148c8.284,0,15,6.716,15,15v148c0,8.284-6.716,15-15,15h-40.308l-33.692,46.436l-33.692-46.436H10z"/>
    </g>
    <path d="{d}" transform="translate(30, 30)"/>
</svg>